<svg xmlns="http://www.w3.org/2000/svg" viewBox="0 0 399.2 467.42"><defs><style>.cls-1,.cls-3{fill:#5e5e5e;}.cls-1{stroke:#770123;}.cls-1,.cls-2{stroke-miterlimit:10;stroke-width:2px;}.cls-2{fill:#7c0018;stroke:#fff;}</style></defs><title>Asset 2</title><g id="Layer_2" data-name="Layer 2"><g id="Layer_1-2" data-name="Layer 1"><path class="cls-1" d="M398.12,417.06c-.67-5.07-5.87-8.6-7.37-13.41s.15-10.08,1.14-14.9c.86-4.23,1.64-8.62.47-12.86-1.26-4.52-4.81-7.21-8.32-10.55-6-5.74.11-11.32,2.55-17.19a25.71,25.71,0,0,0,1.35-14.24c-1.81-10.77-8.35-20.45-12.59-30.6a48.21,48.21,0,0,1-4-17.78c-.14-6.39.33-12.75-.39-19.14a81.4,81.4,0,0,0-4.77-19.76,87.81,87.81,0,0,0-4.09-9c-1.25-2.42-2.38-5.69-5-7.27-6.88-4.14-16.6-.23-19.55,5.83-3.74-2.46-7.89-4.93-11.94-2.51s-5.74,6.39-6.31,10.29c-.82,5.62,1.53,11.08,1.13,16.69-.45,6.29-7.11,9.81-8.93,15.65C310,281.07,313,289,308,292.56c-4.34,3.11-11.42,1.32-13.13-3.08-2.71-7,1.43-17-9.05-20.15-1.4-.42-3.46.49-3.69,1.77a35.3,35.3,0,0,1-2,6.95,208.7,208.7,0,0,1-8.24-40.73q-.58-6-.82-12.06c-.15-3.93-1.07-8.06,2.61-11,4-3.2,7.07-5.79,8.56-9.7,11.38,5.21,26.86,2.48,34.21-6.73,4.53,2.24,8.65,3.82,13.09-.27,2.72-2.51,6.47-16.46,11.72-13.79a3.23,3.23,0,0,0,4.4-1.51,210.67,210.67,0,0,1,21-43.9l7.46,3.28a3.53,3.53,0,0,0,3.64-.39c3.82-3.63,3.86-8.68.72-12.7-3.74-4.81-11-6.53-17.11-8.27-8.7-2.49-17.48-4.86-26.6-6a105.63,105.63,0,0,0-24.75.32c-8.67,1-17.33,2.46-26.1,2.42a53.21,53.21,0,0,1-12.68-1.44c-3.85-1-7.46-2.61-11.48-3.08-8.24-1-14.14,4.89-22.22,5.11-9,.23-18.53-1.75-27.38-3.09Q196,112.43,182,109.63q-6.52-1.3-13-2.76c-4.09-.91-11.83-1.62-13.49-5.55-1.33-3.14.06-7.87.31-11.13l1-12.5c.51-6.5,1.25-13,1-19.57a39.76,39.76,0,0,0-3.61-16.18c-1.95-3.94-5.95-9.56-11-11.15-4.4-1.38-7.89,2.61-9.22,5.63-2.38,5.41-2.25,11.33-11.06,11.18a42.49,42.49,0,0,1-11.27-2.08c-6.32-1.92-7.35-5.64-8.2-10.81-1.09-6.56-3-13.5-9.47-17.85-4.16-2.8-13.78-6-17.17-.8a11.44,11.44,0,0,0-.24,12.08,18.18,18.18,0,0,1-10.81-4.08c3.33-12.47-12.12-19-24.33-22C40.13.61,36.74.47,35.86,2.75l0,.09A2.8,2.8,0,0,0,35.45,4l-2.81,7.11c-1.37,2.23,1.2,3.9,3.46,3.57a11.35,11.35,0,0,1,10.6,4,26.93,26.93,0,0,0-13.13,5.12A20.48,20.48,0,0,0,28.12,30c-1.94,3.43-2.68,6.6-7.1,8.34-5.23,2.06-9.22,4.49-10.92,9.39a17.31,17.31,0,0,0,1.65,14c2.73,4.89,7.88,8.5,13.3,11.21a100.18,100.18,0,0,0,9.58,4c3.25,1.22,9.06,2.39,11.31,4.84C48,84,46.78,87.57,49,90c1.85,2,4.6,2.84,7.48,3.23,7.06,1,13.13.15,18.78,4.74,5.35,4.34,6.69,11.65-1.3,14.51-5.94,2.13-13.48.53-19.49-.58-5.61-1-12.41-3.09-17.33.53-3.5,2.58-4.09,6.69-4.3,10.37-.18,3.12,1,9.45-2.67,11.44-2.86,1.56-7.41-.25-10.62-.15a9.83,9.83,0,0,0-6.83,2.74C8.59,141,6.91,148.41,6.58,153.7A17.71,17.71,0,0,0,13.46,169c6.54,5.19,15.73,8.79,23.68,12.17a120.72,120.72,0,0,0,12.24,4.51c4,1.19,8.39,1.78,11.94,3.77,5.35,3-.2,5.38-2.79,8a9.54,9.54,0,0,0-2.86,6.5,10.77,10.77,0,0,0,4.17,8.66C51.51,217.75,47.1,226.76,48,235.45a21.26,21.26,0,0,0,6.26,13.09c2.38,2.36,5.28,4.31,7.57,6.74,1.39,1.47,2.92,3.14,2.33,5.11-.5,1.66-2.26,2.76-3.08,4.32-2.56,4.85,2.34,7.74,6.82,9.79,3.83,1.75,6.2,3.49,7,7.3,1,4.27,1,8.79,1.48,13.11q2.73,26.28,5.77,52.52c2,17.15,3,34.85,11.64,50.76a3,3,0,0,0,2.59,1.25c5.88-.26,7.6-4.43,8.28-8.74.38-2.41.32-5.06,1.3-7.37,2.21-5.22,6.34,1,7.33,3.66a3.13,3.13,0,0,0,3.69,1.77c7.41-2.44,8.38-8.58,8-14.6-.25-3.89-3.09-13.24.91-16.81a37.29,37.29,0,0,1,4.9,27.2,2.68,2.68,0,0,0,2.89,3.2c8.33-.46,18.8-4.43,22.12-11.48.88-1.87.47-4.2.51-6.19l.17-8.2.75-.07q1,3.6,1.83,7.26c.63,2.86,6.33,2.07,5.94-.86l2.69-.57c1.57,3.71,0,8.65,1.57,12.29,1.94,4.65,8,5.38,12.49,2.75,6.62-3.85,11.88-10.75,15.4-16.71a52.87,52.87,0,0,0,4-8.45,77.52,77.52,0,0,1,1,16c-.11,2.84,5.09,3.44,5.9.67l3.72-12.86c.48-1.66.74-4.83,3.39-3.66,2.44,1.07,1.81,4.78,1.64,6.73s2.65,3.06,4.52,2.18c11-5.17,19.08-14.31,21.31-24.8.48-2.28,0-5.06.94-7.21,1.6-3.73,5.05-1.5,6.13,1a15.5,15.5,0,0,1,.8,4.81c.67,7.58,1,15.18,1.5,22.76.2,3,4.64,3.26,5.89.68q13.11-26.89,26.21-53.77a85.28,85.28,0,0,1,24.2,25.38c6.75,11,9.1,22.41,10.74,34.61.7,5.26,1.64,10.55,4.27,15.4,3,5.49,10.26,9.46,11,15.63.7,5.71-1.14,11.32.11,17.06,1.06,4.85,3.49,9.44,6.25,13.76,6.55,10.25,16.39,20,17.29,32,.21,2.84,4.82,3.44,5.89.68,2.09-5.38,1.29-10.73-.6-16.07s-5.19-10.66-5.37-16.3c-.14-4,1-9.12,4.72-11.94,5.28-4,11.16.44,15.84,2.88C385.56,426.87,399.42,426.92,398.12,417.06Z"/><path class="cls-2" d="M242.59,260.55a19.19,19.19,0,0,0-18.68-18,19.72,19.72,0,0,0-7.41,1.19,30.84,30.84,0,0,1-19.9.52,11.51,11.51,0,0,1-8.11-11v-1.58a10,10,0,0,1,8.34-9.84l1.67-.29a35.76,35.76,0,0,1,19.72,1.91,13.37,13.37,0,0,0,5.85,1,12.79,12.79,0,0,0-.8-25.56,13.24,13.24,0,0,0-9.21,3.69,40.21,40.21,0,0,1-20.88,10.85l-1.62.29a7.25,7.25,0,0,1-7.9-4.14l-.15-.34a13,13,0,0,1,3.88-15.67l.67-.52a34.11,34.11,0,0,1,23-7,18.44,18.44,0,0,0,2,0,19.68,19.68,0,0,0,19-18.69c.4-11.65-9.73-21.1-21.81-20a19.59,19.59,0,0,0-17.82,17.67c0,.58-.07,1.15-.06,1.72a23.4,23.4,0,0,1-9.16,18.58l-.27.21a15,15,0,0,1-18.19.28l-.14-.1a7.11,7.11,0,0,1-2.22-8.81,4.27,4.27,0,0,1,3.67-2.39l.93-.09a12,12,0,1,0-13.78-12.77,11.76,11.76,0,0,0,2.09,7.64,5.52,5.52,0,0,1,.12,6,5.34,5.34,0,0,1-6.33,2.11l-.13,0a14.3,14.3,0,0,1-9.59-14.37V163a39.52,39.52,0,0,1,9.19-23.09A16,16,0,0,0,152.41,129a16.77,16.77,0,0,0-33.52.46,15.71,15.71,0,0,0,2.43,8.43,38.64,38.64,0,0,1,6,23.17l0,.37a15.22,15.22,0,0,1-12.08,13.85l-.21,0a12.8,12.8,0,0,1-14.28-6.82h0a14.62,14.62,0,0,1-.54-11.47,13,13,0,0,0,.8-5A13.49,13.49,0,0,0,88,139.23c-7.75-.28-15,5.82-14.12,13.27,1,8.24,4.59,10.82,8.58,12.71h0a14.87,14.87,0,0,1,9.45,8.17h0a12.52,12.52,0,0,1-3.19,15l-1.21,1.06a11.88,11.88,0,0,1-14.91.73l-.06,0a13.45,13.45,0,0,1-5.46-12,15.45,15.45,0,0,0,.05-1.67c-.22-8.36-7.63-15.65-16.2-15.92A16.36,16.36,0,1,0,50,193.3a15.9,15.9,0,0,0,2.3-.11A25.23,25.23,0,0,1,70,197.89a9.34,9.34,0,0,1,3.08,11.37l-.07.15a14.3,14.3,0,0,1-15,8.29l-15.7-2.12a28,28,0,0,1-16.24-8.24A14.7,14.7,0,0,0,14.71,203a14.22,14.22,0,0,0,.86,28.42,14.87,14.87,0,0,0,7-1.76,32.17,32.17,0,0,1,19.54-3.75l15.05,2c1.77.24,5.83-.39,9.47,3.7a8.71,8.71,0,0,1,1.48,2.65h0c0,.78,0,1.35.12,2.33a13.57,13.57,0,0,1-8.62,13.49l-.15.06a5.48,5.48,0,0,1-4.33-.16,11.27,11.27,0,0,0-5.42-1,10.84,10.84,0,0,0,.62,21.67,11.16,11.16,0,0,0,9.55-5.31,20.19,20.19,0,0,1,9.82-8.16,3.74,3.74,0,0,1,4.72,1.71l.08.16a18.47,18.47,0,0,1-4,22.2h0a32.54,32.54,0,0,1-22.73,8.37c-.52,0-1,0-1.58,0A21.73,21.73,0,0,0,25.3,310.35c-.45,13.9,12.62,24.95,27.34,21.55a21.44,21.44,0,0,0,16.58-19.37c0-.09,0-.17,0-.25a26.29,26.29,0,0,1,8.46-18L83,289.44a19,19,0,0,1,20.44-3.3l.16.07a4.7,4.7,0,0,1,2.69,5.51l-.67,2.46A51.28,51.28,0,0,1,91.2,317.82a14.32,14.32,0,0,0-4.45,11.28,14.87,14.87,0,0,0,29.67-.91,14.11,14.11,0,0,0-1.46-6.28,24.44,24.44,0,0,1-1.54-17.23l.78-2.88a14.35,14.35,0,0,1,14-10.43h.32A12,12,0,0,1,140.39,301l0,.12a34.52,34.52,0,0,1-5.28,25.14A19.41,19.41,0,0,0,132,337.84a20.11,20.11,0,0,0,19.27,18.85c11.65.54,21.27-8.52,21.27-19.77a19.64,19.64,0,0,0-9.2-16.58,26.82,26.82,0,0,1-12.19-17.64l-.4-2.21a16.46,16.46,0,0,1,8.13-17.24c1.16-.67,2.3-1.37,3.41-2.12a5.25,5.25,0,0,1,6.53.55,17.77,17.77,0,0,1,5.29,11.47c0,.05,0,.1,0,.14A12.84,12.84,0,1,0,188,279.77h-.14a18.68,18.68,0,0,1-11.76-5.17,4.29,4.29,0,0,1-.35-5.77l.12-.15a23.08,23.08,0,0,1,25-7.39,5.14,5.14,0,0,1,3.47,3.84,19.37,19.37,0,0,0,38.28-4.57Z"/><circle class="cls-3" cx="140.32" cy="260.07" r="15.44"/><circle class="cls-3" cx="108.4" cy="253.15" r="8.24"/><circle class="cls-3" cx="94.7" cy="233.36" r="3.49"/><circle class="cls-3" cx="156.27" cy="234.9" r="2.54"/><circle class="cls-3" cx="124.92" cy="201.36" r="2.54"/><circle class="cls-3" cx="148.85" cy="208.78" r="8.54"/><circle class="cls-3" cx="114.88" cy="221.46" r="11.5"/><circle class="cls-3" cx="142.02" cy="229.86" r="5.04"/></g></g></svg>