<svg xmlns="http://www.w3.org/2000/svg" viewBox="0 0 442.1 526.36"><defs><style>.cls-1{opacity:0.38;}.cls-2,.cls-4{fill:#5e5e5e;}.cls-2{stroke:#770123;}.cls-2,.cls-3{stroke-miterlimit:10;stroke-width:2px;}.cls-3{fill:#7c0018;stroke:#fff;}</style></defs><title>Asset 6</title><g id="Layer_2" data-name="Layer 2"><g id="Layer_1-2" data-name="Layer 1"><path class="cls-1" d="M430.22,471.43c-.73-5.64-6.36-9.57-8-14.92s.16-11.22,1.23-16.58c.94-4.7,1.78-9.59.51-14.31-1.36-5-5.21-8-9-11.74-6.53-6.39.12-12.6,2.76-19.13a29.3,29.3,0,0,0,1.46-15.85c-1.95-12-9-22.76-13.64-34a54.87,54.87,0,0,1-4.3-19.78c-.15-7.12.36-14.2-.42-21.3a92.06,92.06,0,0,0-5.17-22,99.21,99.21,0,0,0-4.42-10c-1.37-2.69-2.59-6.33-5.44-8.09-7.46-4.61-18-.25-21.19,6.49-4.05-2.74-8.54-5.48-12.93-2.79s-6.22,7.1-6.84,11.45c-.89,6.25,1.65,12.32,1.22,18.56-.48,7-7.69,10.92-9.67,17.43-1.61,5.33,1.56,14.16-3.8,18.11-4.7,3.46-12.37,1.47-14.22-3.43-2.94-7.74,1.54-18.91-9.81-22.42-1.52-.47-3.74.54-4,2a40.76,40.76,0,0,1-2.18,7.74,236.89,236.89,0,0,1-8.93-45.33c-.42-4.47-.73-8.94-.89-13.42s-1.16-9,2.83-12.26c4.32-3.55,7.65-6.44,9.27-10.79,12.33,5.8,29.1,2.76,37.06-7.48,4.91,2.48,9.38,4.25,14.18-.3,3-2.8,7-18.33,12.7-15.35a3.46,3.46,0,0,0,4.77-1.68,237.14,237.14,0,0,1,22.76-48.85l8.08,3.65a3.74,3.74,0,0,0,3.94-.44c4.14-4,4.18-9.65.79-14.13-4.06-5.35-11.95-7.26-18.55-9.2-9.42-2.77-18.93-5.41-28.81-6.63a112,112,0,0,0-26.82.36c-9.38,1.09-18.76,2.73-28.27,2.7A56,56,0,0,1,292.75,136c-4.17-1.08-8.08-2.91-12.43-3.42-8.93-1.06-15.33,5.44-24.07,5.68-9.78.26-20.08-1.95-29.67-3.43q-15.33-2.38-30.49-5.49-7.08-1.45-14.1-3.07c-4.43-1-12.81-1.81-14.61-6.18-1.45-3.5.06-8.76.34-12.39l1.05-13.9c.54-7.24,1.35-14.52,1.07-21.78-.25-6.11-1.19-12.33-3.92-18-2.1-4.38-6.44-10.64-11.95-12.4-4.77-1.54-8.55,2.9-10,6.26-2.58,6-2.44,12.61-12,12.44A45,45,0,0,1,119.79,58c-6.85-2.15-8-6.28-8.89-12-1.17-7.31-3.28-15-10.26-19.87-4.5-3.12-14.93-6.64-18.59-.89a13,13,0,0,0-.27,13.45A19.44,19.44,0,0,1,70.07,34.1C73.68,20.23,57,13,43.72,9.64c-1.33-1.64-5-1.78-6,.75l0,.11a3,3,0,0,0-.4,1.33l-3,7.9c-1.49,2.49,1.3,4.34,3.74,4a12.13,12.13,0,0,1,11.49,4.44,28.81,28.81,0,0,0-14.23,5.7,22.72,22.72,0,0,0-5.9,6.85c-2.11,3.81-2.9,7.34-7.7,9.28C16,52.26,11.7,55,9.86,60.42A19.65,19.65,0,0,0,11.65,76c3,5.44,8.53,9.45,14.41,12.47a105.21,105.21,0,0,0,10.37,4.48c3.53,1.36,9.82,2.66,12.26,5.38,2.27,2.52.91,6.47,3.33,9.14,2,2.21,5,3.16,8.1,3.6,7.65,1.07,14.23.17,20.35,5.27,5.8,4.83,7.25,13-1.41,16.15-6.43,2.37-14.6.59-21.11-.65-6.08-1.16-13.44-3.44-18.77.59-3.79,2.87-4.44,7.44-4.66,11.54-.2,3.47,1.08,10.51-2.89,12.73-3.11,1.73-8-.28-11.51-.17a10.48,10.48,0,0,0-7.4,3.05C8.22,164.22,6.4,172.48,6,178.37a20,20,0,0,0,7.46,17.07c6.14,5,14.44,8.68,22.14,12a18.25,18.25,0,0,0,17.49,15,20.56,20.56,0,0,0,2.49-.12,26.5,26.5,0,0,1,11,1c-1.2,1.25-3,2.47-4.25,3.73a10.76,10.76,0,0,0-3.1,7.24A12.1,12.1,0,0,0,63.75,244a28.15,28.15,0,0,0-6,5.07l-13-1.8a30.17,30.17,0,0,1-17.59-9.17,15.82,15.82,0,1,0-3.75,24.83,34,34,0,0,1,21.17-4.16l7.24,1a25.61,25.61,0,0,0-.91,9.61,23.92,23.92,0,0,0,6.78,14.56c.7.72,1.45,1.4,2.21,2.07a6.81,6.81,0,0,1-1.22-.43,12.07,12.07,0,1,0,5.15,17,21.44,21.44,0,0,1,4.53-5.36c-.58,1.77-2.42,3-3.29,4.68-2.76,5.39,2.54,8.62,7.4,10.89a15.22,15.22,0,0,1,5.79,4.08,20.31,20.31,0,0,1-2.9,3.41h0a34.69,34.69,0,0,1-24.63,9.32c-.56,0-1.13,0-1.7,0A23.91,23.91,0,1,0,73.9,355.11c0-.09,0-.18,0-.27a29.65,29.65,0,0,1,7.85-18.69q2.94,28.92,6.19,57.79c2.15,19.09,3.29,38.8,12.61,56.5a3.26,3.26,0,0,0,2.8,1.39c6.38-.29,8.24-4.94,9-9.73.41-2.68.35-5.63,1.41-8.2,2.4-5.81,6.87,1.13,7.94,4.07a3.37,3.37,0,0,0,4,2c8-2.72,9.08-9.55,8.65-16.25-.28-4.32-3.36-14.73,1-18.7a42.46,42.46,0,0,1,5.31,30.27,3,3,0,0,0,3.14,3.56c9-.51,20.36-4.94,23.95-12.77,1-2.08.51-4.68.56-6.89l.18-9.13.81-.07q1.11,4,2,8.07c.68,3.19,6.85,2.31,6.44-1l2.91-.63c1.7,4.13,0,9.63,1.69,13.68,2.11,5.17,8.64,6,13.54,3.06,7.17-4.29,12.87-12,16.69-18.6a59,59,0,0,0,4.33-9.41A88.78,88.78,0,0,1,218,423c-.12,3.16,5.52,3.83,6.39.74q2-7.15,4-14.31c.52-1.84.81-5.37,3.68-4.07,2.64,1.2,1.95,5.32,1.78,7.49s2.86,3.41,4.89,2.43c11.88-5.75,20.67-15.92,23.08-27.6.53-2.54,0-5.64,1-8,1.73-4.15,5.48-1.67,6.65,1.15a18.15,18.15,0,0,1,.86,5.36c.72,8.43,1.08,16.89,1.63,25.33.21,3.32,5,3.62,6.38.75q14.19-29.93,28.39-59.83A93.74,93.74,0,0,1,333,380.61c7.31,12.29,9.86,24.95,11.63,38.52.76,5.85,1.78,11.74,4.63,17.14,3.24,6.11,11.11,10.53,11.93,17.39.76,6.36-1.22,12.6.13,19C362.41,478,365,483.16,368,488c7.1,11.4,17.77,22.21,18.74,35.66.22,3.16,5.22,3.82,6.38.74,2.26-6,1.39-11.94-.65-17.87s-5.62-11.87-5.82-18.14c-.15-4.49,1.05-10.15,5.11-13.29,5.72-4.43,12.09.49,17.17,3.2C416.61,482.35,431.63,482.41,430.22,471.43Z"/><path class="cls-2" d="M441,417.06c-.67-5.07-5.87-8.6-7.37-13.41s.15-10.08,1.14-14.9c.86-4.23,1.64-8.62.47-12.86-1.26-4.52-4.81-7.21-8.32-10.55-6-5.74.11-11.32,2.55-17.19a25.71,25.71,0,0,0,1.35-14.24c-1.81-10.77-8.35-20.45-12.59-30.6a48.21,48.21,0,0,1-4-17.78c-.14-6.39.33-12.75-.39-19.14a81.4,81.4,0,0,0-4.77-19.76,89.92,89.92,0,0,0-4.08-9c-1.26-2.42-2.39-5.69-5-7.27-6.88-4.14-16.6-.23-19.55,5.83-3.74-2.46-7.89-4.93-11.94-2.51s-5.74,6.39-6.31,10.29c-.82,5.62,1.53,11.08,1.13,16.69-.45,6.29-7.11,9.81-8.93,15.65-1.49,4.79,1.44,12.73-3.51,16.28-4.34,3.11-11.41,1.32-13.13-3.08-2.71-7,1.43-17-9-20.15-1.4-.42-3.45.49-3.69,1.77a35.3,35.3,0,0,1-2,6.95,208.7,208.7,0,0,1-8.24-40.73q-.58-6-.82-12.06c-.15-3.93-1.07-8.06,2.62-11,4-3.2,7.06-5.79,8.55-9.7,11.38,5.21,26.86,2.48,34.21-6.73,4.53,2.24,8.65,3.82,13.09-.27,2.72-2.51,6.47-16.46,11.72-13.79a3.23,3.23,0,0,0,4.4-1.51,210.67,210.67,0,0,1,21-43.9l7.46,3.28a3.53,3.53,0,0,0,3.64-.39c3.82-3.63,3.86-8.68.72-12.7-3.74-4.81-11-6.53-17.11-8.27-8.7-2.49-17.48-4.86-26.6-6a105.63,105.63,0,0,0-24.75.32c-8.67,1-17.33,2.46-26.1,2.42a53.27,53.27,0,0,1-12.68-1.44c-3.85-1-7.46-2.61-11.48-3.08-8.24-1-14.14,4.89-22.22,5.11-9,.23-18.53-1.75-27.38-3.09q-14.16-2.13-28.15-4.93-6.53-1.3-13-2.76c-4.09-.91-11.83-1.62-13.49-5.55-1.33-3.14.06-7.87.31-11.13l1-12.5c.51-6.5,1.25-13,1-19.57a39.76,39.76,0,0,0-3.61-16.18c-1.95-3.94-5.95-9.56-11-11.15-4.4-1.38-7.89,2.61-9.22,5.63-2.38,5.41-2.25,11.33-11.06,11.18a42.49,42.49,0,0,1-11.27-2.08c-6.32-1.92-7.35-5.64-8.2-10.81-1.09-6.56-3-13.5-9.47-17.85-4.16-2.8-13.78-6-17.16-.8a11.42,11.42,0,0,0-.25,12.08,18.18,18.18,0,0,1-10.81-4.08c3.33-12.47-12.11-19-24.33-22C83,.61,79.64.47,78.76,2.75l0,.09A2.8,2.8,0,0,0,78.35,4l-2.81,7.11c-1.37,2.23,1.2,3.9,3.46,3.57a11.35,11.35,0,0,1,10.6,4,26.93,26.93,0,0,0-13.13,5.12A20.48,20.48,0,0,0,71,30c-1.94,3.43-2.68,6.6-7.1,8.34C58.69,40.38,54.7,42.81,53,47.71a17.31,17.31,0,0,0,1.65,14c2.74,4.89,7.88,8.5,13.3,11.21a100.18,100.18,0,0,0,9.58,4c3.26,1.22,9.06,2.39,11.32,4.84,2.09,2.27.83,5.81,3.07,8.21,1.85,2,4.6,2.84,7.48,3.23,7.06,1,13.13.15,18.78,4.74,5.35,4.34,6.69,11.65-1.3,14.51-5.94,2.13-13.48.53-19.48-.58-5.62-1-12.42-3.09-17.34.53-3.5,2.58-4.09,6.69-4.3,10.37-.18,3.12,1,9.45-2.67,11.44-2.86,1.56-7.41-.25-10.62-.15a9.83,9.83,0,0,0-6.83,2.74c-4.15,4.19-5.83,11.61-6.16,16.9A17.71,17.71,0,0,0,56.36,169c6.54,5.19,15.73,8.79,23.68,12.17a120.72,120.72,0,0,0,12.24,4.51c4,1.19,8.39,1.78,11.94,3.77,5.35,3-.2,5.38-2.79,8a9.54,9.54,0,0,0-2.86,6.5,10.77,10.77,0,0,0,4.17,8.66c-8.33,5.11-12.74,14.12-11.85,22.81a21.26,21.26,0,0,0,6.26,13.09c2.38,2.36,5.28,4.31,7.57,6.74,1.39,1.47,2.92,3.14,2.33,5.11-.5,1.66-2.26,2.76-3.08,4.32-2.55,4.85,2.34,7.74,6.82,9.79,3.83,1.75,6.2,3.49,7,7.3,1,4.27,1,8.79,1.48,13.11q2.73,26.28,5.77,52.52c2,17.15,3,34.85,11.64,50.76a3,3,0,0,0,2.59,1.25c5.89-.26,7.6-4.43,8.28-8.74.38-2.41.32-5.06,1.3-7.37,2.21-5.22,6.34,1,7.33,3.66a3.13,3.13,0,0,0,3.69,1.77c7.41-2.44,8.38-8.58,8-14.6-.25-3.89-3.09-13.24.91-16.81a37.29,37.29,0,0,1,4.9,27.2,2.68,2.68,0,0,0,2.89,3.2c8.33-.46,18.8-4.43,22.12-11.48.88-1.87.47-4.2.51-6.19l.17-8.2.75-.07q1,3.6,1.83,7.26c.63,2.86,6.33,2.07,6-.86l2.68-.57c1.57,3.71,0,8.65,1.57,12.29,1.94,4.65,8,5.38,12.49,2.75,6.62-3.85,11.88-10.75,15.4-16.71a52,52,0,0,0,4-8.45,77.52,77.52,0,0,1,1,16c-.11,2.84,5.09,3.44,5.9.67l3.72-12.86c.48-1.66.74-4.83,3.39-3.66,2.45,1.07,1.81,4.78,1.65,6.73s2.64,3.06,4.51,2.18c11-5.17,19.08-14.31,21.31-24.8.49-2.28,0-5.06.94-7.21,1.6-3.73,5.05-1.5,6.13,1a15.5,15.5,0,0,1,.8,4.81c.67,7.58,1,15.18,1.5,22.76.2,3,4.64,3.26,5.89.68q13.11-26.89,26.21-53.77a85.28,85.28,0,0,1,24.2,25.38c6.75,11,9.1,22.41,10.74,34.61.7,5.26,1.64,10.55,4.28,15.4,3,5.49,10.25,9.46,11,15.63.7,5.71-1.13,11.32.12,17.06,1.05,4.85,3.48,9.44,6.24,13.76,6.55,10.25,16.39,20,17.29,32,.21,2.84,4.82,3.44,5.89.68,2.09-5.38,1.29-10.73-.6-16.07s-5.19-10.66-5.37-16.3c-.14-4,1-9.12,4.72-11.94,5.28-4,11.16.44,15.84,2.88C428.46,426.87,442.32,426.92,441,417.06Z"/><path class="cls-3" d="M285.49,260.55a19.19,19.19,0,0,0-18.68-18,19.72,19.72,0,0,0-7.41,1.19,30.84,30.84,0,0,1-19.9.52,11.51,11.51,0,0,1-8.11-11v-1.58a10,10,0,0,1,8.34-9.84l1.67-.29a35.76,35.76,0,0,1,19.72,1.91,13.37,13.37,0,0,0,5.85,1,12.79,12.79,0,0,0-.8-25.56,13.24,13.24,0,0,0-9.21,3.69,40.21,40.21,0,0,1-20.88,10.85l-1.62.29a7.25,7.25,0,0,1-7.9-4.14l-.15-.34a13,13,0,0,1,3.88-15.67L231,193a34.11,34.11,0,0,1,23-7,18.44,18.44,0,0,0,2,0,19.68,19.68,0,0,0,19-18.69c.41-11.65-9.73-21.1-21.81-20a19.59,19.59,0,0,0-17.82,17.67c0,.58-.06,1.15-.06,1.72a23.4,23.4,0,0,1-9.16,18.58l-.27.21a15,15,0,0,1-18.19.28l-.14-.1a7.11,7.11,0,0,1-2.22-8.81,4.27,4.27,0,0,1,3.68-2.39l.92-.09a12,12,0,1,0-13.78-12.77,11.76,11.76,0,0,0,2.09,7.64,5.5,5.5,0,0,1,.12,6,5.33,5.33,0,0,1-6.33,2.11l-.13,0a14.3,14.3,0,0,1-9.59-14.37V163a39.52,39.52,0,0,1,9.19-23.09A16,16,0,0,0,195.31,129a16.77,16.77,0,0,0-33.51.46,15.71,15.71,0,0,0,2.42,8.43,38.64,38.64,0,0,1,6,23.17l0,.37a15.22,15.22,0,0,1-12.08,13.85l-.21,0a12.78,12.78,0,0,1-14.27-6.82h0a14.57,14.57,0,0,1-.55-11.47,13,13,0,0,0,.8-5,13.49,13.49,0,0,0-13.06-12.84c-7.76-.28-15,5.82-14.13,13.27,1,8.24,4.59,10.82,8.58,12.71h0a14.87,14.87,0,0,1,9.45,8.17h0a12.52,12.52,0,0,1-3.19,15l-1.21,1.06a11.88,11.88,0,0,1-14.91.73l-.06,0a13.41,13.41,0,0,1-5.45-12c0-.55,0-1.11,0-1.67-.22-8.36-7.63-15.65-16.2-15.92A16.36,16.36,0,1,0,93,193.3a15.83,15.83,0,0,0,2.29-.11,25.23,25.23,0,0,1,17.67,4.7A9.34,9.34,0,0,1,116,209.26l-.07.15a14.3,14.3,0,0,1-15,8.29l-15.7-2.12A28.07,28.07,0,0,1,69,207.34,14.7,14.7,0,0,0,57.61,203a14.22,14.22,0,0,0,.86,28.42,14.87,14.87,0,0,0,7-1.76,32.17,32.17,0,0,1,19.54-3.75l15,2c1.77.24,5.83-.39,9.47,3.7a8.71,8.71,0,0,1,1.48,2.65h0c0,.78,0,1.35.12,2.33a13.57,13.57,0,0,1-8.62,13.49l-.15.06a5.48,5.48,0,0,1-4.33-.16,11.27,11.27,0,0,0-5.42-1,10.84,10.84,0,0,0,.62,21.67,11.16,11.16,0,0,0,9.55-5.31,20.19,20.19,0,0,1,9.82-8.16,3.74,3.74,0,0,1,4.72,1.71l.08.16a18.47,18.47,0,0,1-4,22.2h0a32.54,32.54,0,0,1-22.73,8.37c-.52,0-1,0-1.58,0a21.72,21.72,0,0,0-20.94,20.73c-.46,13.9,12.61,24.95,27.33,21.55a21.44,21.44,0,0,0,16.58-19.37c0-.09,0-.17,0-.25a26.29,26.29,0,0,1,8.46-18l5.32-4.86a19,19,0,0,1,20.44-3.3l.16.07a4.7,4.7,0,0,1,2.69,5.51l-.67,2.46a51.28,51.28,0,0,1-14.43,23.64,14.32,14.32,0,0,0-4.45,11.28,14.87,14.87,0,0,0,29.67-.91,14.11,14.11,0,0,0-1.46-6.28,24.49,24.49,0,0,1-1.54-17.23l.78-2.88a14.36,14.36,0,0,1,14-10.43h.32A12,12,0,0,1,183.29,301l0,.12A34.52,34.52,0,0,1,178,326.3a19.41,19.41,0,0,0-3.15,11.54,20.11,20.11,0,0,0,19.27,18.85c11.65.54,21.27-8.52,21.27-19.77a19.64,19.64,0,0,0-9.2-16.58A26.8,26.8,0,0,1,194,302.7l-.41-2.21a16.46,16.46,0,0,1,8.13-17.24c1.16-.67,2.3-1.37,3.41-2.12a5.25,5.25,0,0,1,6.53.55A17.77,17.77,0,0,1,217,293.15a.71.71,0,0,1,0,.14,12.84,12.84,0,1,0,13.86-13.52h-.14A18.68,18.68,0,0,1,219,274.59a4.28,4.28,0,0,1-.34-5.77l.11-.15a23.08,23.08,0,0,1,25-7.39,5.12,5.12,0,0,1,3.47,3.84,19.37,19.37,0,0,0,38.28-4.57Z"/><circle class="cls-4" cx="183.22" cy="260.07" r="15.44"/><circle class="cls-4" cx="151.3" cy="253.15" r="8.24"/><circle class="cls-4" cx="137.6" cy="233.36" r="3.49"/><circle class="cls-4" cx="199.17" cy="234.9" r="2.54"/><circle class="cls-4" cx="167.82" cy="201.36" r="2.54"/><circle class="cls-4" cx="191.75" cy="208.78" r="8.54"/><circle class="cls-4" cx="157.78" cy="221.46" r="11.5"/><circle class="cls-4" cx="184.92" cy="229.86" r="5.04"/></g></g></svg>